<svg id="visual" viewBox="0 0 768 200" width="768" height="200" xmlns="http://www.w3.org/2000/svg" xmlns:xlink="http://www.w3.org/1999/xlink" version="1.1"><path d="M0 106L18.3 107.2C36.7 108.3 73.3 110.7 109.8 105C146.3 99.3 182.7 85.7 219.2 79C255.7 72.3 292.3 72.7 329 80.2C365.7 87.7 402.3 102.3 439 99.5C475.7 96.7 512.3 76.3 548.8 77.3C585.3 78.3 621.7 100.7 658.2 102.3C694.7 104 731.3 85 749.7 75.5L768 66L768 201L749.7 201C731.3 201 694.7 201 658.2 201C621.7 201 585.3 201 548.8 201C512.3 201 475.7 201 439 201C402.3 201 365.7 201 329 201C292.3 201 255.7 201 219.2 201C182.7 201 146.3 201 109.8 201C73.3 201 36.7 201 18.3 201L0 201Z" fill="#a0efd7" stroke-linecap="round" stroke-linejoin="miter"></path></svg>